<?xml version="1.0" encoding="UTF-8"?>
<svg width="128" height="128" viewBox="0 0 128 128" fill="none" xmlns="http://www.w3.org/2000/svg">
  <rect width="128" height="128" fill="#E5E7EB"/>
  <path d="M64 48C56.268 48 50 54.268 50 62C50 69.732 56.268 76 64 76C71.732 76 78 69.732 78 62C78 54.268 71.732 48 64 48ZM64 72C58.477 72 54 67.523 54 62C54 56.477 58.477 52 64 52C69.523 52 74 56.477 74 62C74 67.523 69.523 72 64 72Z" fill="#9CA3AF"/>
  <path d="M64 32C44.118 32 28 48.118 28 68H36C36 52.536 48.536 40 64 40C79.464 40 92 52.536 92 68H100C100 48.118 83.882 32 64 32Z" fill="#9CA3AF"/>
</svg> 